<svg width="352" height="48" viewBox="0 0 352 48" fill="none" xmlns="http://www.w3.org/2000/svg">
<rect width="352" height="48" rx="12" fill="#CED5DB"/>
<path d="M159.984 16.7188V22.1719H162V23.8125H159.984V30.9062H157.984V16.7188H159.984ZM148.609 26.9219C151.977 25.2344 153.789 22.9688 154.164 19.7969H149.422V18.1719H156.188C156.172 22.4219 154.516 26.1016 149.734 28.4531L148.609 26.9219ZM174.5 16.7188V24.3594H172.5V16.7188H174.5ZM162.812 20.6875C162.812 18.6875 164.484 17.2969 166.703 17.3125C168.914 17.2969 170.586 18.6875 170.594 20.6875C170.586 22.625 168.914 24.0156 166.703 24.0156C164.484 24.0156 162.812 22.625 162.812 20.6875ZM164.766 20.6875C164.75 21.7422 165.562 22.375 166.703 22.375C167.812 22.375 168.617 21.7422 168.625 20.6875C168.617 19.6172 167.812 18.9609 166.703 18.9688C165.562 18.9609 164.75 19.6172 164.766 20.6875ZM164.984 30.7812V24.9844H166.953V26.3125H172.516V24.9844H174.5V30.7812H164.984ZM166.953 29.1719H172.516V27.8594H166.953V29.1719ZM187.641 16.7188V22.2812H189.734V23.9219H187.641V30.9375H185.672V16.7188H187.641ZM176.344 20.4375V18.8438H179.562V16.9375H181.562V18.8438H184.703V20.4375H176.344ZM176.922 24.625C176.914 22.6406 178.461 21.2266 180.562 21.2344C182.633 21.2266 184.188 22.6406 184.188 24.625C184.188 26.6094 182.633 28.0078 180.562 28.0156C178.461 28.0078 176.914 26.6094 176.922 24.625ZM178.828 24.625C178.828 25.7266 179.555 26.3828 180.562 26.375C181.555 26.3828 182.281 25.7266 182.281 24.625C182.281 23.5312 181.555 22.8594 180.562 22.8438C179.555 22.8594 178.828 23.5312 178.828 24.625ZM202.203 16.7188V30.9375H200.188V16.7188H202.203ZM190.297 26.9062C193.969 25.1719 195.586 22.9219 195.906 19.7656H191.062V18.2031H197.938C197.93 22.5156 196.422 26.1016 191.344 28.5L190.297 26.9062Z" fill="white"/>
</svg>
