<svg width="73" height="28" viewBox="0 0 73 28" fill="none" xmlns="http://www.w3.org/2000/svg">
<rect x="0.5" y="0.5" width="72" height="27" rx="13.5" fill="white"/>
<rect x="0.5" y="0.5" width="72" height="27" rx="13.5" stroke="#9EAAB5"/>
<path d="M22.7871 7.83008V16.7715H21.0371V7.83008H22.7871ZM12.5605 11.7539C12.5605 9.92871 14.0508 8.61621 15.9648 8.62305C17.8721 8.61621 19.3623 9.92871 19.3691 11.7539C19.3623 13.6064 17.8721 14.9121 15.9648 14.9121C14.0508 14.9121 12.5605 13.6064 12.5605 11.7539ZM14.2695 11.7539C14.2559 12.793 14.9873 13.3945 15.9648 13.3945C16.9082 13.3945 17.6396 12.793 17.6465 11.7539C17.6396 10.7422 16.9082 10.1338 15.9648 10.1406C14.9873 10.1338 14.2559 10.7422 14.2695 11.7539ZM14.4473 20.0391V15.8691H16.2109V18.6445H23.1152V20.0391H14.4473ZM35.8164 13.5449V14.9531H24.4688V13.5449H35.8164ZM24.9746 11.7266C27.3125 11.5146 28.5908 10.6602 28.8779 9.78516H25.5078V8.39062H34.791V9.78516H31.3936C31.6738 10.6533 32.9453 11.5146 35.3379 11.7266L34.7227 13.0938C32.3711 12.8682 30.792 11.9795 30.1289 10.7764C29.4727 11.9795 27.9072 12.8682 25.5488 13.0938L24.9746 11.7266ZM25.7676 17.9609C25.7676 16.498 27.4082 15.6504 30.1289 15.6504C32.8291 15.6504 34.4492 16.498 34.4629 17.9609C34.4492 19.4307 32.8291 20.2646 30.1289 20.2578C27.4082 20.2646 25.7676 19.4307 25.7676 17.9609ZM27.5449 17.9609C27.5381 18.6035 28.4062 18.9043 30.1289 18.9043C31.8174 18.9043 32.7061 18.6035 32.7129 17.9609C32.7061 17.3115 31.8174 17.0039 30.1289 17.0039C28.4062 17.0039 27.5381 17.3115 27.5449 17.9609ZM47.957 17.373V18.8086H36.5684V17.373H39.1113V14.3242C38.1475 13.7432 37.5664 12.8613 37.5664 11.7676C37.5664 9.75098 39.5352 8.4248 42.2422 8.41797C44.9355 8.4248 46.9248 9.75098 46.9316 11.7676C46.9248 12.8408 46.3643 13.709 45.4277 14.29V17.373H47.957ZM39.2891 11.7676C39.2891 12.9844 40.458 13.7363 42.2422 13.7363C43.999 13.7363 45.2021 12.9844 45.209 11.7676C45.2021 10.5166 43.999 9.79199 42.2422 9.79883C40.458 9.79199 39.2891 10.5166 39.2891 11.7676ZM40.834 17.373H43.6641V14.9531C43.2197 15.042 42.7412 15.0898 42.2422 15.0898C41.7432 15.0898 41.2715 15.042 40.834 14.96V17.373ZM55.7637 9.11523V10.4824H53.248C53.2686 11.7607 54.1982 13.0596 56.2012 13.5723L55.3945 14.9121C53.9727 14.5566 52.9814 13.7705 52.4141 12.7588C51.874 13.9072 50.876 14.8164 49.4062 15.2402L48.5859 13.8867C50.5752 13.3125 51.498 11.8906 51.5117 10.4824H49.0098V9.11523H51.5117V7.76172H53.2754V9.11523H55.7637ZM50.623 17.8789C50.623 16.3887 52.2637 15.5479 54.9023 15.541C57.5547 15.5479 59.1885 16.3887 59.1953 17.8789C59.1885 19.3896 57.5547 20.2646 54.9023 20.2578C52.2637 20.2646 50.623 19.3896 50.623 17.8789ZM52.3594 17.8789C52.3594 18.5625 53.2549 18.9316 54.9023 18.9316C56.584 18.9316 57.4521 18.5625 57.459 17.8789C57.4521 17.2158 56.584 16.8809 54.9023 16.8809C53.2549 16.8809 52.3594 17.2158 52.3594 17.8789ZM55.3945 12.5469V11.1523H57.418V7.81641H59.1543V15.3359H57.418V12.5469H55.3945Z" fill="#9EAAB5"/>
</svg>
