<svg width="73" height="28" viewBox="0 0 73 28" fill="none" xmlns="http://www.w3.org/2000/svg">
<rect x="0.5" y="0.5" width="72" height="27" rx="13.5" fill="white"/>
<rect x="0.5" y="0.5" width="72" height="27" rx="13.5" stroke="#9EAAB5"/>
<path d="M23.7168 13.4629V14.8711H18.9043V15.7871C21.0713 15.9512 22.3496 16.7305 22.3633 18.0156C22.3496 19.4512 20.7227 20.2578 18.0293 20.2578C15.2949 20.2578 13.668 19.4512 13.668 18.0156C13.668 16.7236 14.96 15.9443 17.168 15.7871V14.8711H12.3691V13.4629H23.7168ZM18.0293 17.0723C16.3066 17.0859 15.4316 17.3867 15.4453 18.0156C15.4316 18.6172 16.3066 18.9453 18.0293 18.9453C19.7109 18.9453 20.5996 18.6172 20.6133 18.0156C20.5996 17.3867 19.7109 17.0859 18.0293 17.0723ZM22.6914 8.34961V9.7168H19.3145C19.6084 10.5918 20.873 11.4326 23.2383 11.6309L22.623 12.998C20.2783 12.7725 18.6924 11.8838 18.0293 10.6738C17.373 11.8838 15.8145 12.7725 13.4492 12.998L12.875 11.6309C15.1787 11.4326 16.4502 10.585 16.7715 9.7168H13.4082V8.34961H22.6914ZM35.8164 13.9824V15.3906H24.4688V13.9824H29.2539V12.9297H25.918V8.11719H27.6406V9.25195H32.6309V8.11719H34.3672V12.9297H31.0039V13.9824H35.8164ZM34.4355 16.2383V20.2578H32.6992V17.6191H25.7266V16.2383H34.4355ZM27.6406 11.5625H32.6309V10.5371H27.6406V11.5625ZM46.5215 7.83008V11.3848H48.1074V12.8203H46.5215V16.2793H44.7715V7.83008H46.5215ZM36.4316 14.6797C37.3408 14.6797 38.3799 14.6797 39.4531 14.6523V13.9551C38.0996 13.7637 37.252 13.1074 37.2656 12.1504C37.252 11.002 38.4688 10.291 40.3145 10.291C42.1465 10.291 43.3496 11.002 43.3633 12.1504C43.3496 13.1074 42.5225 13.7568 41.1895 13.9414V14.584C42.2148 14.543 43.2334 14.4609 44.1973 14.3379L44.3203 15.541C41.6953 16.0059 38.8105 16.0332 36.6094 16.0332L36.4316 14.6797ZM46.5215 16.7852V20.2578H44.7715V18.125H38.0176V16.7852H46.5215ZM43.8828 8.73242V10.0039H36.7598V8.73242H39.4531V7.7207H41.1895V8.73242H43.8828ZM40.3145 11.4531C39.4258 11.4531 38.9199 11.6719 38.9336 12.1504C38.9199 12.6016 39.4258 12.8613 40.3145 12.8613C41.1895 12.8613 41.6816 12.6016 41.6953 12.1504C41.6816 11.6719 41.1895 11.4531 40.3145 11.4531ZM59.0859 7.83008V16.7715H57.3359V7.83008H59.0859ZM59.4141 18.6445V20.0391H50.7461V15.8691H52.5098V18.6445H59.4141ZM52.2637 8.62305C54.1777 8.62305 55.668 9.93555 55.668 11.7539C55.668 13.6133 54.1777 14.9121 52.2637 14.9121C50.3496 14.9121 48.8594 13.6133 48.8594 11.7539C48.8594 9.93555 50.3496 8.62305 52.2637 8.62305ZM52.2637 10.1406C51.293 10.127 50.5547 10.7422 50.5684 11.7539C50.5547 12.793 51.293 13.3945 52.2637 13.3945C53.207 13.3945 53.9453 12.793 53.9453 11.7539C53.9453 10.7422 53.207 10.127 52.2637 10.1406Z" fill="#9EAAB5"/>
</svg>
