<svg width="17" height="18" viewBox="0 0 17 18" fill="none" xmlns="http://www.w3.org/2000/svg">
<path d="M8.49984 9.70866C8.89104 9.70866 9.20817 9.39153 9.20817 9.00033C9.20817 8.60912 8.89104 8.29199 8.49984 8.29199C8.10864 8.29199 7.7915 8.60912 7.7915 9.00033C7.7915 9.39153 8.10864 9.70866 8.49984 9.70866Z" stroke="#9EAAB5" stroke-linecap="round" stroke-linejoin="round"/>
<path d="M8.49984 4.74967C8.89104 4.74967 9.20817 4.43254 9.20817 4.04134C9.20817 3.65014 8.89104 3.33301 8.49984 3.33301C8.10864 3.33301 7.7915 3.65014 7.7915 4.04134C7.7915 4.43254 8.10864 4.74967 8.49984 4.74967Z" stroke="#9EAAB5" stroke-linecap="round" stroke-linejoin="round"/>
<path d="M8.49996 14.6667C8.89116 14.6667 9.20829 14.3495 9.20829 13.9583C9.20829 13.5671 8.89116 13.25 8.49996 13.25C8.10876 13.25 7.79163 13.5671 7.79163 13.9583C7.79163 14.3495 8.10876 14.6667 8.49996 14.6667Z" stroke="#9EAAB5" stroke-linecap="round" stroke-linejoin="round"/>
</svg>
