<svg width="31" height="45" viewBox="0 0 31 45" fill="none" xmlns="http://www.w3.org/2000/svg">
<mask id="path-1-inside-1_995_2995" fill="white">
<path fill-rule="evenodd" clip-rule="evenodd" d="M15.1071 30.273C23.4505 30.273 30.2141 23.5093 30.2141 15.1659C30.2141 6.8225 23.4505 0.0588379 15.1071 0.0588379C6.76366 0.0588379 0 6.8225 0 15.1659C0 19.5147 1.4164 23.8151 1.4164 28.1639L1.4164 33.3504C1.4164 34.9533 3.21128 35.9015 4.53531 34.998L9.31538 31.7365C10.9953 30.5902 13.0733 30.273 15.1071 30.273Z"/>
</mask>
<path d="M1.4164 33.3504H19.3684H1.4164ZM4.53531 34.998L14.6535 49.827L14.6535 49.827L4.53531 34.998ZM12.2621 15.1659C12.2621 13.5947 13.5358 12.3209 15.1071 12.3209V48.225C33.3651 48.225 48.1662 33.4239 48.1662 15.1659H12.2621ZM15.1071 18.0109C13.5358 18.0109 12.2621 16.7371 12.2621 15.1659H48.1662C48.1662 -3.09214 33.3651 -17.8932 15.1071 -17.8932V18.0109ZM17.952 15.1659C17.952 16.7371 16.6783 18.0109 15.1071 18.0109V-17.8932C-3.15098 -17.8932 -17.952 -3.09214 -17.952 15.1659H17.952ZM19.3684 33.3504V28.1639L-16.5356 28.1639V33.3504H19.3684ZM-5.58284 20.1691C5.00936 12.9418 19.3684 20.5274 19.3684 33.3504H-16.5356C-16.5357 49.3791 1.41321 58.8611 14.6535 49.827L-5.58284 20.1691ZM-0.802781 16.9075L-5.58285 20.1691L14.6535 49.827L19.4335 46.5655L-0.802781 16.9075ZM19.4335 46.5655C18.0382 47.5176 16.7753 47.918 16.0406 48.0842C15.344 48.2419 14.9669 48.225 15.1071 48.225V12.3209C11.6259 12.3209 5.24989 12.7776 -0.802781 16.9075L19.4335 46.5655ZM-17.952 15.1659C-17.952 19.0469 -17.3206 22.6567 -17.0079 24.5661C-16.6124 26.9813 -16.5356 27.6961 -16.5356 28.1639L19.3684 28.1639C19.3684 24.2828 18.737 20.6731 18.4243 18.7637C18.0288 16.3485 17.952 15.6336 17.952 15.1659H-17.952Z" fill="url(#paint0_angular_995_2995)" mask="url(#path-1-inside-1_995_2995)"/>
<circle cx="2.36048" cy="41.6983" r="2.36048" fill="#9A58EE"/>
<defs>
<radialGradient id="paint0_angular_995_2995" cx="0" cy="0" r="1" gradientUnits="userSpaceOnUse" gradientTransform="translate(15.1071 17.7037) rotate(-90) scale(19.0573 16.3164)">
<stop stop-color="#E0C8FF"/>
<stop offset="1" stop-color="#7016E3"/>
</radialGradient>
</defs>
</svg>
