<svg width="180" height="181" viewBox="0 0 180 181" fill="none" xmlns="http://www.w3.org/2000/svg">
<g style="mix-blend-mode:luminosity">
<mask id="path-1-inside-1_981_7852" fill="white">
<path fill-rule="evenodd" clip-rule="evenodd" d="M90.4374 123.843C124.569 123.843 152.239 96.173 152.239 62.0409C152.239 27.9088 124.569 0.239258 90.4374 0.239258C56.3053 0.239258 28.6357 27.9088 28.6357 62.0409C28.6357 79.836 34.4332 97.4333 34.4332 115.228L34.4332 136.431C34.4332 142.988 41.7759 146.867 47.1924 143.171L66.7465 129.829C73.6184 125.14 82.1182 123.843 90.4374 123.843Z"/>
</mask>
<path d="M34.4332 136.431H107.873H34.4332ZM47.1924 143.171L5.79993 82.5074L5.79991 82.5074L47.1924 143.171ZM78.7988 62.0409C78.7988 55.6131 84.0096 50.4023 90.4374 50.4023V197.283C165.129 197.283 225.679 136.733 225.679 62.0409H78.7988ZM90.4374 73.6794C84.0096 73.6794 78.7988 68.4687 78.7988 62.0409H225.679C225.679 -12.6511 165.129 -73.2009 90.4374 -73.2009V73.6794ZM102.076 62.0409C102.076 68.4687 96.8652 73.6794 90.4374 73.6794V-73.2009C15.7454 -73.2009 -44.8044 -12.6511 -44.8044 62.0409H102.076ZM107.873 136.431V115.228L-39.007 115.228V136.431H107.873ZM5.79991 82.5074C49.132 52.9409 107.873 83.9737 107.873 136.431H-39.007C-39.007 202.003 34.4198 240.794 88.5849 203.835L5.79991 82.5074ZM25.354 69.1652L5.79993 82.5074L88.5849 203.835L108.139 190.493L25.354 69.1652ZM108.139 190.493C102.431 194.388 97.2644 196.026 94.2583 196.707C91.408 197.352 89.8649 197.283 90.4374 197.283V50.4023C76.1961 50.4023 50.1138 52.271 25.354 69.1652L108.139 190.493ZM-44.8044 62.0409C-44.8044 77.9221 -42.2197 92.6932 -40.9398 100.506C-39.3209 110.389 -39.007 113.315 -39.007 115.228L107.873 115.228C107.873 99.3472 105.289 84.5762 104.009 76.763C102.39 66.88 102.076 63.9548 102.076 62.0409H-44.8044Z" fill="url(#paint0_angular_981_7852)" mask="url(#path-1-inside-1_981_7852)"/>
<circle cx="38.2932" cy="170.582" r="9.65651" fill="#9A58EE"/>
<path d="M67.6898 60.377L75.0011 53.0657L82.3124 60.377C83.0555 61.1201 84.29 61.1321 85.0451 60.377C85.8002 59.6219 85.7882 58.3874 85.0451 57.6443L77.7339 50.333L85.0451 43.0217C85.7882 42.2786 85.8002 41.0441 85.0451 40.289C84.29 39.5339 83.0555 39.5459 82.3124 40.289L75.0011 47.6003L67.6898 40.289C66.9467 39.5459 65.7122 39.5339 64.9571 40.289C64.202 41.0441 64.214 42.2786 64.9571 43.0217L72.2684 50.333L64.9571 57.6443C64.214 58.3874 64.202 59.6219 64.9571 60.377C65.7122 61.1321 66.9467 61.1201 67.6898 60.377Z" fill="white"/>
<path d="M113.689 60.377L121 53.0657L128.311 60.377C129.055 61.1201 130.289 61.1321 131.044 60.377C131.799 59.6219 131.787 58.3874 131.044 57.6443L123.733 50.333L131.044 43.0217C131.787 42.2786 131.799 41.0441 131.044 40.289C130.289 39.5339 129.055 39.5459 128.311 40.289L121 47.6003L113.689 40.289C112.946 39.5459 111.711 39.5339 110.956 40.289C110.201 41.0441 110.213 42.2786 110.956 43.0217L118.267 50.333L110.956 57.6443C110.213 58.3874 110.201 59.6219 110.956 60.377C111.711 61.1321 112.946 61.1201 113.689 60.377Z" fill="white"/>
</g>
<defs>
<radialGradient id="paint0_angular_981_7852" cx="0" cy="0" r="1" gradientUnits="userSpaceOnUse" gradientTransform="translate(90.4374 72.4222) rotate(-90) scale(77.9613 66.7489)">
<stop stop-color="#E0C8FF"/>
<stop offset="1" stop-color="#7016E3"/>
</radialGradient>
</defs>
</svg>
