<svg width="24" height="24" viewBox="0 0 24 24" fill="none" xmlns="http://www.w3.org/2000/svg">
<g id="ico_visibility">
<mask id="mask0_967_4591" style="mask-type:alpha" maskUnits="userSpaceOnUse" x="0" y="0" width="24" height="24">
<rect id="Bounding box" width="24" height="24" fill="#D9D9D9"/>
</mask>
<g mask="url(#mask0_967_4591)">
<path id="visibility_off" d="M19.8 21.8L15.6 17.65C15.0167 17.8333 14.4292 17.9708 13.8375 18.0625C13.2458 18.1542 12.6333 18.2 12 18.2C9.48333 18.2 7.24167 17.5042 5.275 16.1125C3.30833 14.7208 1.88333 12.9167 1 10.7C1.35 9.81667 1.79167 8.99583 2.325 8.2375C2.85833 7.47917 3.46667 6.8 4.15 6.2L1.4 3.4L2.8 2L21.2 20.4L19.8 21.8ZM12 15.2C12.1833 15.2 12.3542 15.1917 12.5125 15.175C12.6708 15.1583 12.8417 15.125 13.025 15.075L7.625 9.675C7.575 9.85833 7.54167 10.0292 7.525 10.1875C7.50833 10.3458 7.5 10.5167 7.5 10.7C7.5 11.95 7.9375 13.0125 8.8125 13.8875C9.6875 14.7625 10.75 15.2 12 15.2ZM19.3 15.65L16.125 12.5C16.2417 12.2167 16.3333 11.9292 16.4 11.6375C16.4667 11.3458 16.5 11.0333 16.5 10.7C16.5 9.45 16.0625 8.3875 15.1875 7.5125C14.3125 6.6375 13.25 6.2 12 6.2C11.6667 6.2 11.3542 6.23333 11.0625 6.3C10.7708 6.36667 10.4833 6.46667 10.2 6.6L7.65 4.05C8.33333 3.76667 9.03333 3.55417 9.75 3.4125C10.4667 3.27083 11.2167 3.2 12 3.2C14.5167 3.2 16.7583 3.89583 18.725 5.2875C20.6917 6.67917 22.1167 8.48333 23 10.7C22.6167 11.6833 22.1125 12.5958 21.4875 13.4375C20.8625 14.2792 20.1333 15.0167 19.3 15.65ZM14.675 11.05L11.675 8.05C12.1417 7.96667 12.5708 8.00417 12.9625 8.1625C13.3542 8.32083 13.6917 8.55 13.975 8.85C14.2583 9.15 14.4625 9.49583 14.5875 9.8875C14.7125 10.2792 14.7417 10.6667 14.675 11.05Z" fill="#9EAAB5"/>
</g>
</g>
</svg>