<svg width="57" height="24" viewBox="0 0 57 24" fill="none" xmlns="http://www.w3.org/2000/svg">
<rect width="57" height="24" rx="12" fill="#F1E6FF"/>
<path d="M22 11.6667C22.0023 12.5466 21.7967 13.4146 21.4 14.2C20.9296 15.1412 20.2065 15.9328 19.3116 16.4862C18.4168 17.0396 17.3855 17.3329 16.3333 17.3334C15.4534 17.3356 14.5854 17.1301 13.8 16.7334L10 18L11.2667 14.2C10.87 13.4146 10.6644 12.5466 10.6667 11.6667C10.6671 10.6145 10.9604 9.58325 11.5138 8.68839C12.0672 7.79352 12.8588 7.0704 13.8 6.60002C14.5854 6.20331 15.4534 5.99772 16.3333 6.00002H16.6667C18.0562 6.07668 19.3687 6.66319 20.3528 7.64726C21.3368 8.63132 21.9233 9.94379 22 11.3334V11.6667Z" stroke="#7620E4" stroke-width="1.5" stroke-linecap="round" stroke-linejoin="round"/>
<path d="M31.9727 7.51562V16H30.6719V8.80469H30.625L28.5977 10.1289V8.89844L30.707 7.51562H31.9727ZM34.1289 16V15.0625L37.0703 12.0977C38.002 11.1309 38.4648 10.5918 38.4648 9.84766C38.4648 9.00977 37.7852 8.47656 36.8945 8.47656C35.9512 8.47656 35.3535 9.07422 35.3477 9.97656H34.1289C34.1172 8.42383 35.3008 7.39844 36.918 7.39844C38.5527 7.39844 39.6836 8.43555 39.6953 9.8125C39.6836 10.7617 39.2383 11.5176 37.6445 13.082L35.9219 14.8281V14.8984H39.8359V16H34.1289ZM44.2773 16.1172C42.5195 16.1172 41.2715 15.1738 41.2188 13.7852H42.5312C42.5781 14.5293 43.3164 15.0039 44.2656 15.0039C45.291 15.0039 46.0352 14.4473 46.0352 13.6211C46.0352 12.7832 45.3379 12.1855 44.125 12.1797H43.3984V11.125H44.125C45.0918 11.1309 45.7656 10.5918 45.7656 9.77734C45.7656 9.00391 45.1855 8.47656 44.2891 8.47656C43.4395 8.47656 42.6777 8.95117 42.6484 9.71875H41.4062C41.4414 8.33594 42.7188 7.39844 44.3008 7.39844C45.9707 7.39844 47.0195 8.45312 47.0078 9.70703C47.0195 10.6738 46.4219 11.3652 45.5078 11.5938V11.6523C46.668 11.8164 47.3418 12.5957 47.3359 13.668C47.3418 15.0801 46.0352 16.1172 44.2773 16.1172Z" fill="#7620E4"/>
</svg>
