<svg width="16" height="16" viewBox="0 0 16 16" fill="none" xmlns="http://www.w3.org/2000/svg">
<path d="M3.98877 13.5592C5.86963 13.5592 7.31104 11.3561 7.31104 8.11002C7.31104 4.85806 5.86963 2.66666 3.98877 2.66666C2.10791 2.66666 0.666504 4.85806 0.666504 8.11002C0.666504 11.3561 2.10791 13.5592 3.98877 13.5592ZM11.4712 13.5592C13.3521 13.5592 14.7935 11.3561 14.7935 8.11002C14.7935 4.85806 13.3521 2.66666 11.4712 2.66666C9.59619 2.66666 8.14893 4.85806 8.14893 8.11002C8.14893 11.3561 9.59619 13.5592 11.4712 13.5592ZM2.81104 10.1256C3.79541 10.1256 4.45166 9.44595 4.45166 8.4147C4.45166 7.39517 3.79541 6.70377 2.81104 6.70377C2.40674 6.70377 2.06104 6.82095 1.7915 7.02603C2.02588 5.02213 2.92822 3.71548 3.98877 3.70963C5.24268 3.70377 6.26221 5.48502 6.26221 8.11002C6.26221 10.7174 5.24268 12.5104 3.98877 12.5163C3.05127 12.5221 2.24268 11.5085 1.90283 9.88541C2.15479 10.0436 2.45947 10.1256 2.81104 10.1256ZM10.2935 10.1256C11.272 10.1256 11.9341 9.44595 11.9341 8.4147C11.9341 7.39517 11.272 6.70377 10.2935 6.70377C9.8833 6.70377 9.5376 6.82095 9.26221 7.02603C9.50244 5.02213 10.4048 3.71548 11.4712 3.71548C12.7192 3.71548 13.7388 5.49673 13.7388 8.11002C13.7388 10.7233 12.7192 12.5104 11.4712 12.5104C10.5337 12.5104 9.71924 11.5026 9.37939 9.88541C9.63135 10.0436 9.94189 10.1256 10.2935 10.1256ZM2.34814 8.20963C2.14307 8.17447 2.0083 7.92838 2.05518 7.67056C2.10791 7.41275 2.31299 7.23111 2.51221 7.26627C2.72314 7.30728 2.84619 7.55338 2.79346 7.80533C2.74658 8.06314 2.55322 8.24478 2.34814 8.20963ZM9.83057 8.20963C9.61963 8.16861 9.49072 7.92838 9.5376 7.67056C9.59033 7.41275 9.78369 7.23111 9.98877 7.26627C10.2056 7.30142 10.3286 7.55338 10.2759 7.80533C10.2231 8.06314 10.0356 8.24478 9.83057 8.20963Z" fill="#7620E4"/>
</svg>
