<svg width="65" height="24" viewBox="0 0 65 24" fill="none" xmlns="http://www.w3.org/2000/svg">
<rect width="65" height="24" rx="12" fill="#F1E6FF"/>
<path d="M11.989 17.5593C13.8699 17.5593 15.3113 15.3561 15.3113 12.11C15.3113 8.85809 13.8699 6.66669 11.989 6.66669C10.1082 6.66669 8.66675 8.85809 8.66675 12.11C8.66675 15.3561 10.1082 17.5593 11.989 17.5593ZM19.4714 17.5593C21.3523 17.5593 22.7937 15.3561 22.7937 12.11C22.7937 8.85809 21.3523 6.66669 19.4714 6.66669C17.5964 6.66669 16.1492 8.85809 16.1492 12.11C16.1492 15.3561 17.5964 17.5593 19.4714 17.5593ZM10.8113 14.1257C11.7957 14.1257 12.4519 13.446 12.4519 12.4147C12.4519 11.3952 11.7957 10.7038 10.8113 10.7038C10.407 10.7038 10.0613 10.821 9.79175 11.0261C10.0261 9.02216 10.9285 7.71552 11.989 7.70966C13.2429 7.7038 14.2625 9.48505 14.2625 12.11C14.2625 14.7175 13.2429 16.5104 11.989 16.5163C11.0515 16.5222 10.2429 15.5085 9.90308 13.8854C10.155 14.0436 10.4597 14.1257 10.8113 14.1257ZM18.2937 14.1257C19.2722 14.1257 19.9343 13.446 19.9343 12.4147C19.9343 11.3952 19.2722 10.7038 18.2937 10.7038C17.8835 10.7038 17.5378 10.821 17.2625 11.0261C17.5027 9.02216 18.405 7.71552 19.4714 7.71552C20.7195 7.71552 21.739 9.49677 21.739 12.11C21.739 14.7233 20.7195 16.5104 19.4714 16.5104C18.5339 16.5104 17.7195 15.5026 17.3796 13.8854C17.6316 14.0436 17.9421 14.1257 18.2937 14.1257ZM10.3484 12.2097C10.1433 12.1745 10.0085 11.9284 10.0554 11.6706C10.1082 11.4128 10.3132 11.2311 10.5125 11.2663C10.7234 11.3073 10.8464 11.5534 10.7937 11.8054C10.7468 12.0632 10.5535 12.2448 10.3484 12.2097ZM17.8308 12.2097C17.6199 12.1686 17.491 11.9284 17.5378 11.6706C17.5906 11.4128 17.7839 11.2311 17.989 11.2663C18.2058 11.3015 18.3289 11.5534 18.2761 11.8054C18.2234 12.0632 18.0359 12.2448 17.8308 12.2097Z" fill="#7620E4"/>
<path d="M31.9727 7.51562V16H30.6719V8.80469H30.625L28.5977 10.1289V8.89844L30.707 7.51562H31.9727ZM35.1719 15.1914L34.2344 18.4258H33.2383L33.8594 15.1914H35.1719ZM36.8594 16V15.0625L39.8008 12.0977C40.7324 11.1309 41.1953 10.5918 41.1953 9.84766C41.1953 9.00977 40.5156 8.47656 39.625 8.47656C38.6816 8.47656 38.084 9.07422 38.0781 9.97656H36.8594C36.8477 8.42383 38.0312 7.39844 39.6484 7.39844C41.2832 7.39844 42.4141 8.43555 42.4258 9.8125C42.4141 10.7617 41.9688 11.5176 40.375 13.082L38.6523 14.8281V14.8984H42.5664V16H36.8594ZM47.2188 7.51562V16H45.918V8.80469H45.8711L43.8438 10.1289V8.89844L45.9531 7.51562H47.2188ZM52.3281 16.1172C50.3652 16.1172 49.2109 14.5352 49.2109 11.7578C49.2109 8.99805 50.377 7.39844 52.3281 7.39844C54.2734 7.39844 55.4395 8.99805 55.4453 11.7578C55.4395 14.5352 54.291 16.1172 52.3281 16.1172ZM50.5 11.7578C50.4941 13.873 51.1797 15.0039 52.3281 15.0039C53.4707 15.0039 54.1562 13.873 54.1562 11.7578C54.1562 9.64844 53.4648 8.49414 52.3281 8.48828C51.1855 8.49414 50.5 9.64844 50.5 11.7578Z" fill="#7620E4"/>
</svg>
