<svg width="24" height="24" viewBox="0 0 24 24" fill="none" xmlns="http://www.w3.org/2000/svg">
<path d="M11.272 6.34302C11.4108 6.54964 11.643 6.67394 11.8919 6.6748C12.1409 6.67566 12.374 6.55297 12.5142 6.34731C13.1655 5.39206 14.2431 4.75 15.6738 4.75C18.0979 4.75 20.0391 6.62754 20.0391 9.49316C20.0391 11.1528 19.3437 12.86 18.0108 14.5651C16.6775 16.2706 14.7346 17.9357 12.3234 19.4886L12.3229 19.4889C12.2048 19.5651 12.0874 19.6319 11.9871 19.6772C11.948 19.6948 11.9171 19.7066 11.8945 19.714C11.8719 19.7066 11.8411 19.6948 11.8019 19.6772C11.7016 19.6319 11.5842 19.5651 11.4662 19.4889C9.05903 17.9359 7.11591 16.2707 5.78138 14.5648C4.44716 12.8594 3.75 11.1523 3.75 9.49316C3.75 6.62841 5.69035 4.75 8.12402 4.75C9.55529 4.75 10.6392 5.40101 11.272 6.34302Z" fill="#464F59" stroke="#464F59" stroke-width="1.5" stroke-linejoin="round"/>
</svg>
