<svg width="24" height="24" viewBox="0 0 24 24" fill="none" xmlns="http://www.w3.org/2000/svg">
<path d="M5.15967 18.7551H18.8254C20.4526 18.7551 21.3115 17.9113 21.3115 16.2992V8.38902C21.3115 6.77686 20.4526 5.93311 18.8254 5.93311H16.8215C16.2339 5.93311 16.0455 5.83517 15.6764 5.45096L15.0813 4.81062C14.6895 4.39628 14.2902 4.19287 13.5218 4.19287H10.4256C9.65716 4.19287 9.25788 4.39628 8.86614 4.81062L8.271 5.45096C7.90939 5.82764 7.71352 5.93311 7.12591 5.93311H5.15967C3.53244 5.93311 2.68115 6.77686 2.68115 8.38902V16.2992C2.68115 17.9113 3.53244 18.7551 5.15967 18.7551ZM11.9925 16.3896C9.74002 16.3896 7.93199 14.5815 7.93199 12.3215C7.93199 10.0539 9.74002 8.24588 11.9925 8.24588C14.2526 8.24588 16.0606 10.0539 16.0606 12.3215C16.0606 14.5815 14.2526 16.3896 11.9925 16.3896ZM16.5428 9.54918C16.5428 9.0143 17.0023 8.54722 17.5522 8.54722C18.0947 8.54722 18.5542 9.0143 18.5542 9.54918C18.5542 10.1067 18.0947 10.5436 17.5522 10.5511C17.0023 10.5511 16.5428 10.1142 16.5428 9.54918ZM11.9925 15.026C13.4917 15.026 14.6971 13.8207 14.6971 12.3215C14.6971 10.8148 13.4917 9.60944 11.9925 9.60944C10.5009 9.60944 9.29555 10.8148 9.29555 12.3215C9.29555 13.8207 10.5084 15.026 11.9925 15.026Z" fill="white"/>
</svg>
