<svg width="16" height="16" viewBox="0 0 16 16" fill="none" xmlns="http://www.w3.org/2000/svg">
<path d="M12.6667 2H3.33333C2.59695 2 2 2.59695 2 3.33333V12.6667C2 13.403 2.59695 14 3.33333 14H12.6667C13.403 14 14 13.403 14 12.6667V3.33333C14 2.59695 13.403 2 12.6667 2Z" stroke="#7620E4" stroke-width="1.33333" stroke-linecap="round" stroke-linejoin="round"/>
<path d="M5.66666 6.66675C6.21894 6.66675 6.66666 6.21903 6.66666 5.66675C6.66666 5.11446 6.21894 4.66675 5.66666 4.66675C5.11437 4.66675 4.66666 5.11446 4.66666 5.66675C4.66666 6.21903 5.11437 6.66675 5.66666 6.66675Z" stroke="#7620E4" stroke-width="1.33333" stroke-linecap="round" stroke-linejoin="round"/>
<path d="M14 10.0001L10.6667 6.66675L3.33334 14.0001" stroke="#7620E4" stroke-width="1.33333" stroke-linecap="round" stroke-linejoin="round"/>
</svg>
