<svg width="16" height="16" viewBox="0 0 16 16" fill="none" xmlns="http://www.w3.org/2000/svg">
<path d="M3.98877 13.5591C5.86963 13.5591 7.31104 11.356 7.31104 8.10986C7.31104 4.85791 5.86963 2.6665 3.98877 2.6665C2.10791 2.6665 0.666504 4.85791 0.666504 8.10986C0.666504 11.356 2.10791 13.5591 3.98877 13.5591ZM11.4712 13.5591C13.3521 13.5591 14.7935 11.356 14.7935 8.10986C14.7935 4.85791 13.3521 2.6665 11.4712 2.6665C9.59619 2.6665 8.14893 4.85791 8.14893 8.10986C8.14893 11.356 9.59619 13.5591 11.4712 13.5591ZM2.81104 10.1255C3.79541 10.1255 4.45166 9.4458 4.45166 8.41455C4.45166 7.39502 3.79541 6.70361 2.81104 6.70361C2.40674 6.70361 2.06104 6.8208 1.7915 7.02588C2.02588 5.02197 2.92822 3.71533 3.98877 3.70947C5.24268 3.70361 6.26221 5.48486 6.26221 8.10986C6.26221 10.7173 5.24268 12.5103 3.98877 12.5161C3.05127 12.522 2.24268 11.5083 1.90283 9.88525C2.15479 10.0435 2.45947 10.1255 2.81104 10.1255ZM10.2935 10.1255C11.272 10.1255 11.9341 9.4458 11.9341 8.41455C11.9341 7.39502 11.272 6.70361 10.2935 6.70361C9.8833 6.70361 9.5376 6.8208 9.26221 7.02588C9.50244 5.02197 10.4048 3.71533 11.4712 3.71533C12.7192 3.71533 13.7388 5.49658 13.7388 8.10986C13.7388 10.7231 12.7192 12.5103 11.4712 12.5103C10.5337 12.5103 9.71924 11.5024 9.37939 9.88525C9.63135 10.0435 9.94189 10.1255 10.2935 10.1255ZM2.34814 8.20947C2.14307 8.17432 2.0083 7.92822 2.05518 7.67041C2.10791 7.4126 2.31299 7.23096 2.51221 7.26611C2.72314 7.30713 2.84619 7.55322 2.79346 7.80518C2.74658 8.06299 2.55322 8.24463 2.34814 8.20947ZM9.83057 8.20947C9.61963 8.16846 9.49072 7.92822 9.5376 7.67041C9.59033 7.4126 9.78369 7.23096 9.98877 7.26611C10.2056 7.30127 10.3286 7.55322 10.2759 7.80518C10.2231 8.06299 10.0356 8.24463 9.83057 8.20947Z" fill="#7620E4"/>
</svg>
