<svg width="16" height="16" viewBox="0 0 16 16" fill="none" xmlns="http://www.w3.org/2000/svg">
<path d="M14.9722 7.97481C14.4233 6.555 13.4704 5.32715 12.2313 4.44301C10.9922 3.55888 9.52114 3.0572 8 3C6.47886 3.0572 5.00783 3.55888 3.76871 4.44301C2.52959 5.32715 1.57669 6.555 1.0278 7.97481C0.990733 8.07734 0.990733 8.18962 1.0278 8.29215C1.57669 9.71196 2.52959 10.9398 3.76871 11.8239C5.00783 12.7081 6.47886 13.2098 8 13.267C9.52114 13.2098 10.9922 12.7081 12.2313 11.8239C13.4704 10.9398 14.4233 9.71196 14.9722 8.29215C15.0093 8.18962 15.0093 8.07734 14.9722 7.97481ZM8 12.3336C5.5266 12.3336 2.91319 10.4995 1.96583 8.13348C2.91319 5.76741 5.5266 3.93336 8 3.93336C10.4734 3.93336 13.0868 5.76741 14.0342 8.13348C13.0868 10.4995 10.4734 12.3336 8 12.3336Z" fill="#7620E4"/>
<path d="M6.24444 5.4719C6.70491 5.16422 7.24628 5 7.80008 5C8.54271 5 9.25492 5.29501 9.78004 5.82012C10.3052 6.34524 10.6002 7.05745 10.6002 7.80008C10.6002 8.35388 10.4359 8.89525 10.1283 9.35572C9.82058 9.81619 9.38327 10.1751 8.87162 10.387C8.35998 10.5989 7.79697 10.6544 7.25381 10.5464C6.71065 10.4383 6.21172 10.1716 5.82013 9.78004C5.42853 9.38844 5.16185 8.88951 5.0538 8.34635C4.94576 7.80319 5.00121 7.24018 5.21314 6.72854C5.42508 6.21689 5.78397 5.77958 6.24444 5.4719Z" fill="#7620E4"/>
</svg>
