<svg width="76" height="32" viewBox="0 0 76 32" fill="none" xmlns="http://www.w3.org/2000/svg">
<rect x="0.5" y="0.5" width="75" height="31" rx="15.5" fill="#F8F9FC"/>
<rect x="0.5" y="0.5" width="75" height="31" rx="15.5" stroke="#CED5DB"/>
<path d="M28.1997 16.6985H27.7238L26.3239 18.0984H27.6608L28.8997 19.4983H19.1003L20.3463 18.0984H21.7812L20.3813 16.6985H19.8003L17.7004 18.7983V21.5981C17.7004 21.9694 17.8479 22.3255 18.1105 22.588C18.373 22.8506 18.7291 22.998 19.1003 22.998H28.8997C29.271 22.998 29.627 22.8506 29.8896 22.588C30.1521 22.3255 30.2996 21.9694 30.2996 21.5981V18.7983L28.1997 16.6985ZM27.4998 13.1637L24.035 16.6285L21.5502 14.1506L25.0219 10.6859L27.4998 13.1637ZM24.532 9.20197L20.0733 13.6607C20.0084 13.7254 19.9569 13.8023 19.9218 13.887C19.8867 13.9717 19.8686 14.0625 19.8686 14.1541C19.8686 14.2458 19.8867 14.3366 19.9218 14.4213C19.9569 14.5059 20.0084 14.5829 20.0733 14.6476L23.538 18.0984C23.811 18.3854 24.252 18.3854 24.525 18.0984L28.9767 13.6607C29.0416 13.5959 29.0931 13.519 29.1282 13.4343C29.1633 13.3496 29.1814 13.2589 29.1814 13.1672C29.1814 13.0755 29.1633 12.9848 29.1282 12.9001C29.0931 12.8154 29.0416 12.7385 28.9767 12.6737L25.5119 9.20897C25.4488 9.1429 25.373 9.09018 25.2891 9.05395C25.2052 9.01772 25.1148 8.99872 25.0234 8.99806C24.932 8.99741 24.8414 9.01512 24.757 9.05015C24.6726 9.08518 24.5961 9.13681 24.532 9.20197Z" fill="#9EAAB5"/>
<path d="M47.6484 16.7676V17.834H42.6719V21.6621H41.3867V17.834H36.4375V16.7676H47.6484ZM37.9141 15.6328V9.95898H46.2676V10.998H39.1855V12.2559H45.9941V13.2676H39.1855V14.5938H46.4043V15.6328H37.9141ZM59.7617 19.1465V20.2129H48.5508V19.1465H51.5586V16.4258H49.5352V15.373H51.3672V11.5586H49.5078V10.4922H58.7363V11.5586H56.8633V15.373H58.6953V16.4258H56.6855V19.1465H59.7617ZM52.6523 15.373H55.5918V11.5586H52.6523V15.373ZM52.8574 19.1465H55.3867V16.4258H52.8574V19.1465Z" fill="#9EAAB5"/>
</svg>
