<svg width="16" height="16" viewBox="0 0 16 16" fill="none" xmlns="http://www.w3.org/2000/svg">
<path d="M12.1995 8.69847H11.7235L10.3236 10.0984H11.6605L12.8994 11.4983H3.1001L4.34602 10.0984H5.78092L4.38102 8.69847H3.80005L1.7002 10.7983V13.5981C1.7002 13.9694 1.84768 14.3255 2.11022 14.588C2.37275 14.8506 2.72882 14.998 3.1001 14.998H12.8994C13.2707 14.998 13.6268 14.8506 13.8893 14.588C14.1519 14.3255 14.2993 13.9694 14.2993 13.5981V10.7983L12.1995 8.69847ZM11.4995 5.16371L8.03477 8.62847L5.54994 6.15064L9.0217 2.68587L11.4995 5.16371ZM8.53174 1.20197L4.07304 5.66067C4.00815 5.72543 3.95667 5.80235 3.92154 5.88702C3.88642 5.9717 3.86834 6.06247 3.86834 6.15414C3.86834 6.24581 3.88642 6.33658 3.92154 6.42126C3.95667 6.50593 4.00815 6.58285 4.07304 6.64761L7.5378 10.0984C7.81079 10.3854 8.25176 10.3854 8.52474 10.0984L12.9764 5.66067C13.0413 5.59592 13.0928 5.519 13.1279 5.43433C13.1631 5.34965 13.1811 5.25888 13.1811 5.16721C13.1811 5.07553 13.1631 4.98476 13.1279 4.90009C13.0928 4.81541 13.0413 4.73849 12.9764 4.67374L9.51167 1.20897C9.44852 1.1429 9.37274 1.09018 9.28883 1.05395C9.20492 1.01772 9.11458 0.998717 9.02319 0.998064C8.93179 0.997411 8.84119 1.01512 8.75677 1.05015C8.67235 1.08518 8.59582 1.13681 8.53174 1.20197Z" fill="#7620E4"/>
</svg>
