<svg width="16" height="16" viewBox="0 0 16 16" fill="none" xmlns="http://www.w3.org/2000/svg">
<path d="M12.1997 8.69847H11.7238L10.3239 10.0984H11.6608L12.8997 11.4983H3.10035L4.34626 10.0984H5.78117L4.38126 8.69847H3.8003L1.70044 10.7983V13.5981C1.70044 13.9694 1.84793 14.3255 2.11046 14.588C2.373 14.8506 2.72907 14.998 3.10035 14.998H12.8997C13.271 14.998 13.627 14.8506 13.8896 14.588C14.1521 14.3255 14.2996 13.9694 14.2996 13.5981V10.7983L12.1997 8.69847ZM11.4998 5.16371L8.03501 8.62847L5.55018 6.15064L9.02195 2.68587L11.4998 5.16371ZM8.53198 1.20197L4.07328 5.66067C4.00839 5.72543 3.95691 5.80235 3.92179 5.88702C3.88666 5.9717 3.86858 6.06247 3.86858 6.15414C3.86858 6.24581 3.88666 6.33658 3.92179 6.42126C3.95691 6.50593 4.00839 6.58285 4.07328 6.64761L7.53805 10.0984C7.81103 10.3854 8.252 10.3854 8.52498 10.0984L12.9767 5.66067C13.0416 5.59592 13.0931 5.519 13.1282 5.43433C13.1633 5.34965 13.1814 5.25888 13.1814 5.16721C13.1814 5.07553 13.1633 4.98476 13.1282 4.90009C13.0931 4.81541 13.0416 4.73849 12.9767 4.67374L9.51192 1.20897C9.44876 1.1429 9.37298 1.09018 9.28907 1.05395C9.20516 1.01772 9.11483 0.998717 9.02343 0.998064C8.93203 0.997411 8.84144 1.01512 8.75701 1.05015C8.67259 1.08518 8.59607 1.13681 8.53198 1.20197Z" fill="#9EAAB5"/>
</svg>
