<svg width="44" height="44" viewBox="0 0 44 44" fill="none" xmlns="http://www.w3.org/2000/svg">
<mask id="mask0_551_1420" style="mask-type:alpha" maskUnits="userSpaceOnUse" x="10" y="10" width="24" height="24">
<rect x="10" y="10" width="24" height="24" fill="#D9D9D9"/>
</mask>
<g mask="url(#mask0_551_1420)">
<path d="M22 26C23.25 26 24.3125 25.5625 25.1875 24.6875C26.0625 23.8125 26.5 22.75 26.5 21.5C26.5 20.25 26.0625 19.1875 25.1875 18.3125C24.3125 17.4375 23.25 17 22 17C20.75 17 19.6875 17.4375 18.8125 18.3125C17.9375 19.1875 17.5 20.25 17.5 21.5C17.5 22.75 17.9375 23.8125 18.8125 24.6875C19.6875 25.5625 20.75 26 22 26ZM22 24.2C21.25 24.2 20.6125 23.9375 20.0875 23.4125C19.5625 22.8875 19.3 22.25 19.3 21.5C19.3 20.75 19.5625 20.1125 20.0875 19.5875C20.6125 19.0625 21.25 18.8 22 18.8C22.75 18.8 23.3875 19.0625 23.9125 19.5875C24.4375 20.1125 24.7 20.75 24.7 21.5C24.7 22.25 24.4375 22.8875 23.9125 23.4125C23.3875 23.9375 22.75 24.2 22 24.2ZM22 29C19.5667 29 17.35 28.3208 15.35 26.9625C13.35 25.6042 11.9 23.7833 11 21.5C11.9 19.2167 13.35 17.3958 15.35 16.0375C17.35 14.6792 19.5667 14 22 14C24.4333 14 26.65 14.6792 28.65 16.0375C30.65 17.3958 32.1 19.2167 33 21.5C32.1 23.7833 30.65 25.6042 28.65 26.9625C26.65 28.3208 24.4333 29 22 29Z" fill="#9EAAB5"/>
</g>
</svg>
