<svg width="36" height="36" viewBox="0 0 36 36" fill="none" xmlns="http://www.w3.org/2000/svg">
<rect x="1" y="1" width="34" height="34" rx="17" fill="#9EAAB5"/>
<rect x="1" y="1" width="34" height="34" rx="17" stroke="white" stroke-width="2"/>
<path d="M11.1597 24.7551H24.8254C26.4526 24.7551 27.3115 23.9113 27.3115 22.2992V14.389C27.3115 12.7769 26.4526 11.9331 24.8254 11.9331H22.8215C22.2339 11.9331 22.0455 11.8352 21.6764 11.451L21.0813 10.8106C20.6895 10.3963 20.2902 10.1929 19.5218 10.1929H16.4256C15.6572 10.1929 15.2579 10.3963 14.8661 10.8106L14.271 11.451C13.9094 11.8276 13.7135 11.9331 13.1259 11.9331H11.1597C9.53244 11.9331 8.68115 12.7769 8.68115 14.389V22.2992C8.68115 23.9113 9.53244 24.7551 11.1597 24.7551ZM17.9925 22.3896C15.74 22.3896 13.932 20.5815 13.932 18.3215C13.932 16.0539 15.74 14.2459 17.9925 14.2459C20.2526 14.2459 22.0606 16.0539 22.0606 18.3215C22.0606 20.5815 20.2526 22.3896 17.9925 22.3896ZM22.5428 15.5492C22.5428 15.0143 23.0023 14.5472 23.5522 14.5472C24.0947 14.5472 24.5542 15.0143 24.5542 15.5492C24.5542 16.1067 24.0947 16.5436 23.5522 16.5511C23.0023 16.5511 22.5428 16.1142 22.5428 15.5492ZM17.9925 21.026C19.4917 21.026 20.6971 19.8207 20.6971 18.3215C20.6971 16.8148 19.4917 15.6094 17.9925 15.6094C16.5009 15.6094 15.2955 16.8148 15.2955 18.3215C15.2955 19.8207 16.5084 21.026 17.9925 21.026Z" fill="white"/>
</svg>
