<svg width="70" height="69" viewBox="0 0 70 69" fill="none" xmlns="http://www.w3.org/2000/svg">
<g filter="url(#filter0_d_732_6416)">
<circle cx="35" cy="30" r="30" fill="#7620E4"/>
<path d="M29.76 41.0096L43.0357 27.7339L36.73 21.4282L23.4543 34.7039C23.2716 34.8869 23.1417 35.1159 23.0786 35.3667L21.6072 42.8567L29.0957 41.3853C29.3472 41.3224 29.5772 41.1924 29.76 41.0096ZM47.3215 23.4482C47.8571 22.9124 48.158 22.1858 48.158 21.4282C48.158 20.6705 47.8571 19.9439 47.3215 19.4082L45.0557 17.1424C44.52 16.6068 43.7934 16.3059 43.0357 16.3059C42.2781 16.3059 41.5515 16.6068 41.0157 17.1424L38.75 19.4082L45.0557 25.7139L47.3215 23.4482Z" fill="white"/>
</g>
<defs>
<filter id="filter0_d_732_6416" x="0.714286" y="0" width="68.5714" height="68.5714" filterUnits="userSpaceOnUse" color-interpolation-filters="sRGB">
<feFlood flood-opacity="0" result="BackgroundImageFix"/>
<feColorMatrix in="SourceAlpha" type="matrix" values="0 0 0 0 0 0 0 0 0 0 0 0 0 0 0 0 0 0 127 0" result="hardAlpha"/>
<feOffset dy="4.28571"/>
<feGaussianBlur stdDeviation="2.14286"/>
<feComposite in2="hardAlpha" operator="out"/>
<feColorMatrix type="matrix" values="0 0 0 0 0.113725 0 0 0 0 0.133333 0 0 0 0 0.156863 0 0 0 0.32 0"/>
<feBlend mode="normal" in2="BackgroundImageFix" result="effect1_dropShadow_732_6416"/>
<feBlend mode="normal" in="SourceGraphic" in2="effect1_dropShadow_732_6416" result="shape"/>
</filter>
</defs>
</svg>
