<svg width="52" height="52" viewBox="0 0 52 52" fill="none" xmlns="http://www.w3.org/2000/svg">
<rect width="52" height="52" rx="26" fill="#7620E4"/>
<path d="M20.9778 38.5272H31.3627C33.103 38.5272 34.2217 37.4763 34.3121 35.736L35.0692 19.4637H36.3122C36.8885 19.4637 37.3292 19.0117 37.3292 18.4467C37.3292 17.8817 36.8772 17.4523 36.3122 17.4523H31.2949V15.7573C31.2949 14.017 30.1875 13 28.3004 13H24.0063C22.1191 13 21.0117 14.017 21.0117 15.7573V17.4523H16.017C15.452 17.4523 15 17.893 15 18.4467C15 19.023 15.452 19.4637 16.017 19.4637H17.26L18.0172 35.736C18.1076 37.4876 19.215 38.5272 20.9778 38.5272ZM23.1249 15.859C23.1249 15.2826 23.5317 14.9097 24.1532 14.9097H28.1535C28.775 14.9097 29.1818 15.2826 29.1818 15.859V17.4523H23.1249V15.859ZM21.2038 36.5045C20.5823 36.5045 20.1303 36.0412 20.0964 35.3744L19.3393 19.4637H32.9561L32.2215 35.3744C32.1989 36.0525 31.7582 36.5045 31.1141 36.5045H21.2038ZM22.8311 34.6851C23.317 34.6851 23.6221 34.38 23.6108 33.928L23.2718 22.108C23.2605 21.656 22.9441 21.3622 22.4807 21.3622C22.0061 21.3622 21.701 21.6673 21.7123 22.1193L22.0513 33.9393C22.0626 34.3913 22.379 34.6851 22.8311 34.6851ZM26.1646 34.6851C26.6392 34.6851 26.9669 34.3913 26.9669 33.9393V22.1193C26.9669 21.6673 26.6392 21.3622 26.1646 21.3622C25.69 21.3622 25.3736 21.6673 25.3736 22.1193V33.9393C25.3736 34.3913 25.69 34.6851 26.1646 34.6851ZM29.4982 34.6964C29.9502 34.6964 30.2666 34.3913 30.2779 33.9393L30.6169 22.1193C30.6282 21.6673 30.3231 21.3735 29.8485 21.3735C29.3852 21.3735 29.0688 21.6673 29.0575 22.1193L28.7185 33.9393C28.7072 34.38 29.0123 34.6964 29.4982 34.6964Z" fill="#F1E6FF"/>
</svg>
